<?xml version="1.0" encoding="UTF-8" standalone="no"?>
<!-- Created with Inkscape (http://www.inkscape.org/) -->

<svg
   width="210mm"
   height="297mm"
   viewBox="0 0 210 297"
   version="1.1"
   id="svg5"
   inkscape:version="1.2.1 (9c6d41e410, 2022-07-14)"
   sodipodi:docname="dessin.svg"
   inkscape:export-filename="logosvg"
   inkscape:export-xdpi="96"
   inkscape:export-ydpi="96"
   xmlns:inkscape="http://www.inkscape.org/namespaces/inkscape"
   xmlns:sodipodi="http://sodipodi.sourceforge.net/DTD/sodipodi-0.dtd"
   xmlns="http://www.w3.org/2000/svg"
   xmlns:svg="http://www.w3.org/2000/svg">
  <sodipodi:namedview
     id="namedview7"
     pagecolor="#ffffff"
     bordercolor="#000000"
     borderopacity="0.25"
     inkscape:showpageshadow="2"
     inkscape:pageopacity="0.0"
     inkscape:pagecheckerboard="0"
     inkscape:deskcolor="#d1d1d1"
     inkscape:document-units="mm"
     showgrid="false"
     inkscape:zoom="1.1056049"
     inkscape:cx="167.78145"
     inkscape:cy="569.82379"
     inkscape:window-width="1920"
     inkscape:window-height="1046"
     inkscape:window-x="-11"
     inkscape:window-y="-11"
     inkscape:window-maximized="1"
     inkscape:current-layer="layer1" />
  <defs
     id="defs2" />
  <g
     inkscape:label="Calque 1"
     inkscape:groupmode="layer"
     id="layer1">
    <path
       style="opacity:1;fill:#7c2f0a;fill-opacity:1;stroke-width:0.1;paint-order:markers stroke fill"
       d="m 85.940622,194.3182 c 5.097963,-0.46861 10.129718,-0.57307 15.068248,-0.16478 l 0.95445,1.55274 c -1.3656,-1.27318 -11.883453,-1.42034 -17.492787,-0.0598 z"
       id="path104587"
       sodipodi:nodetypes="ccccc" />
    <path
       style="opacity:1;fill:#7c2f0a;fill-opacity:1;stroke-width:0.1;paint-order:markers stroke fill"
       d="m 88.945959,190.3105 c 2.870387,-0.315 5.750068,-0.54635 8.699112,-0.15343 l 1.048003,1.27971 c -3.473718,-0.93266 -7.116275,-0.68345 -10.828325,0.0522 z"
       id="path104585"
       sodipodi:nodetypes="ccccc" />
    <path
       style="opacity:1;fill:#7c2f0a;fill-opacity:1;stroke-width:0.1;paint-order:markers stroke fill"
       d="m 84.049583,196.4431 c 10.743612,-12.29832 14.862825,-17.98253 18.943147,-23.72797 1.2282,-2.44862 -1.71364,-15.46165 -1.96478,-15.59471 -4.464869,-8.1044 -12.612599,-14.13535 -18.787929,-20.31203 -0.723821,-2.86952 -0.278751,-5.68382 4.22215,-14.84351 2.099978,-2.76444 6.131082,-5.23486 8.562688,-7.08049 0.361932,-0.27471 3.595051,-2.72223 4.855348,-4.42085 -6.916283,3.30716 -10.801832,6.59011 -14.818044,10.53656 -2.259776,5.5143 -4.938424,9.15435 -4.821003,15.55737 0.485165,2.00358 14.206467,13.30996 18.760343,21.16629 1.252927,4.17856 2.623037,13.09895 1.757327,14.06333 -6.217846,10.17123 -20.824088,26.69839 -18.722599,26.71392 0.813891,-0.63039 1.390921,-1.16285 2.013389,-2.05791 z"
       id="path98031"
       sodipodi:nodetypes="cccccscccccccc" />
    <path
       style="opacity:1;fill:#000000;fill-opacity:1;stroke-width:0.1;paint-order:markers stroke fill"
       d="m 38.386392,148.84014 -0.247655,77.51575"
       id="path7898" />
    <path
       style="opacity:1;fill:#000000;fill-opacity:1;stroke-width:0.108381;paint-order:markers stroke fill"
       d="m 26.806206,212.0897 c 3.384204,2.46378 11.360062,0.77907 12.399078,-1.15142 5.877025,-3.45942 4.485558,-29.34997 -0.04659,-32.26752 -4.601714,-2.45676 -12.307491,-1.14307 -12.15541,-0.69467 -2.201251,0.77718 -2.931468,30.67725 -0.197068,34.11361 z"
       id="path15399"
       sodipodi:nodetypes="cccccc" />
    <path
       style="fill:#27acb5;fill-opacity:1;stroke-width:0.0942482;paint-order:markers stroke fill"
       d="m 27.905354,210.44035 c 2.826543,2.23071 9.488109,0.70537 10.355913,-1.0425 4.908587,-3.13216 3.746411,-26.57349 -0.03891,-29.21504 -3.843427,-2.22435 -10.279418,-1.03493 -10.152397,-0.62895 -1.838521,0.70366 -2.44841,27.7752 -0.164594,30.88649 z"
       id="path15399-2"
       sodipodi:nodetypes="cccccc" />
    <path
       style="fill:#17f9f3;fill-opacity:1;stroke-width:0.0603696;paint-order:markers stroke fill"
       d="m 27.843304,200.55103 c 1.702459,1.51954 5.714797,0.48049 6.237485,-0.71014 2.956497,-2.13361 2.256505,-18.10167 -0.02344,-19.90106 -2.31494,-1.51521 -6.19141,-0.705 -6.114904,-0.42845 -1.107362,0.47934 -1.474705,18.92027 -0.09914,21.03965 z"
       id="path15399-5"
       sodipodi:nodetypes="cccccc" />
    <path
       style="opacity:1;fill:#000000;fill-opacity:1;stroke-width:0.1;paint-order:markers stroke fill"
       d="m 42.203418,203.95765 c 12.265243,-2.48744 14.069263,-0.4666 17.407545,0.69608 5.202151,1.50857 8.10026,1.59641 14.873333,2.36023 8.885559,0.0402 15.589445,-0.0353 25.649204,-1.62085 2.24491,-0.66896 6.13561,-1.05045 10.09389,-4.64606 1.58039,-1.16789 4.77484,-8.58149 3.94403,-10.76052 -1.09596,-1.76129 -4.5175,0.83067 -4.93007,1.36398 -1.46941,1.05915 -2.60664,3.02064 -3.66649,4.61221 -4.38336,1.48859 -8.6973,1.03949 -12.99908,0.81489 -3.868548,-0.1998 -11.007166,-0.0442 -11.661952,-0.65073 1.205,-1.01924 2.057359,-0.86726 3.634654,-0.76409 2.356987,-0.18965 7.66533,2.64173 8.879042,-2.59498 -0.326972,-1.36225 -0.943093,-2.40322 -2.012188,-2.94089 -2.466892,-1.25822 -4.690347,-0.99324 -7.589501,-1.89895 -1.696763,-0.53007 -3.376277,-1.35757 -5.041773,-1.66382 -2.52891,-1.00629 -6.346305,-1.93764 -10.531525,-2.6672 -3.423158,-0.6497 -8.020655,-0.90247 -12.103829,-0.39715 -5.205245,2.62375 -9.500005,0.72393 -14.171332,0.55959 l -0.232175,0.0697"
       id="path49695"
       sodipodi:nodetypes="cccccccccccccsccccc" />
    <path
       style="fill:#95390c;fill-opacity:1;stroke-width:0.088832;paint-order:markers stroke fill"
       d="m 42.652946,203.10847 c 1.191341,-1.42486 13.891211,-1.91355 17.139163,0.46995 5.7055,2.15872 11.629212,1.69058 13.731153,2.42956 7.077665,0.73306 10.811985,-0.22196 21.137874,-0.74706 1.741827,-0.10208 10.053114,-1.08705 15.220784,-5.44065 1.38085,-1.03159 4.33678,-7.28089 3.87573,-9.20562 -1.10589,-1.3384 -2.66287,-0.0607 -2.83169,0.13651 -3.40932,2.73559 -4.22269,4.77993 -4.67844,5.72035 -6.771466,2.52576 -12.465752,0.85629 -18.646913,0.85704 -3.082999,-0.10012 -6.846958,0.36251 -7.574481,-0.94432 -0.06196,-0.37289 0.124423,-2.02031 5.142935,-1.73513 2.676579,-0.18324 6.678703,2.35385 7.125558,-1.83682 0.10454,-1.4311 -0.376737,-2.59395 -5.641038,-3.53889 -8.597445,-0.69846 -9.522754,-2.00036 -11.121363,-2.72823 -1.443874,-0.65742 -5.592661,-1.22608 -7.080563,-1.49659 -2.225863,-0.93806 -5.519681,-0.77468 -7.314982,-0.74392 -1.000905,-0.16509 -2.299108,0.11445 -5.833546,0.73896 -5.274049,2.17359 -8.458976,0.54217 -12.632192,0.397 l 0.04983,-0.24242"
       id="path49695-9"
       sodipodi:nodetypes="cccccccccccccsccccc" />
    <path
       style="fill:#c1490f;fill-opacity:1;stroke-width:0.0720455;paint-order:markers stroke fill"
       d="m 51.39216,186.17023 c 0.07313,11.10474 21.041717,17.06487 32.011941,14.90681 5.93164,0.005 24.171779,-0.39645 22.929939,-4.57893 -1.58161,0.80066 -1.96396,0.654 -3.14618,1.05436 -8.246374,1.15329 -13.641718,-0.82397 -18.948102,-0.0734 -2.393095,0.25735 -5.259737,0.11117 -5.799655,-1.02641 -0.03645,-0.32187 0.372326,-1.82581 2.348897,-2.54764 3.603831,-1.90856 10.643777,1.23473 11.16162,-1.77516 0.639878,-1.87287 -3.224743,-2.11607 -4.833748,-2.82526 -6.449876,-0.6124 -10.149465,-1.58667 -11.171562,-2.48159 -0.884862,-0.77476 -4.290504,-1.4432 -5.559945,-1.52718 -1.095862,-0.74375 -5.429776,-0.99536 -6.727996,-1.06565 -1.130606,-0.35362 -5.923138,0.0318 -8.345126,0.7802 -3.607985,1.17937 -1.601083,0.52711 -3.81192,1.05671"
       id="path49695-9-1"
       sodipodi:nodetypes="cccccccccscccc" />
    <path
       style="opacity:1;fill:#7c2f0a;fill-opacity:1;stroke-width:0.1;paint-order:markers stroke fill"
       d="m 103.46004,198.17367 c -5.168591,-7.70545 -11.790976,-13.91024 -18.778107,-20.1447 -3.507151,-5.50951 -2.117393,-20.97081 -1.454639,-22.3352 3.512956,-8.30454 13.2259,-14.90631 16.255153,-24.38492 -1.863654,-7.20245 -10.39201,-12.76309 -14.080364,-20.3146 5.27518,5.92663 15.445737,14.24115 15.915827,20.49034 1.10605,2.84314 -9.442425,14.16897 -15.574322,25.42055 -0.40805,2.2818 -0.554904,11.33806 -0.20871,16.8943 l 1.309923,2.88587 c 6.570748,6.72776 13.573949,13.10169 18.860299,20.88032 z"
       id="path91965"
       sodipodi:nodetypes="ccccccccccc" />
    <path
       style="opacity:1;fill:#7c2f0a;fill-opacity:1;stroke-width:0.1;paint-order:markers stroke fill"
       d="m 85.897085,122.96403 c 2.853073,-0.35853 5.658413,-0.62159 8.325446,-0.60804 l 0.982213,1.28623 c -1.925871,-0.6168 -5.494701,-0.30679 -9.845539,0.44434 z"
       id="path102389"
       sodipodi:nodetypes="ccccc" />
    <path
       style="opacity:1;fill:#7c2f0a;fill-opacity:1;stroke-width:0.1;paint-order:markers stroke fill"
       d="m 83.862496,127.40738 c 2.988345,-0.83886 7.660453,-0.84482 13.891332,-0.56127 l 0.888671,1.8709 c -0.608038,-2.43269 -16.538876,-0.90464 -15.434815,0.37417 z"
       id="path103843"
       sodipodi:nodetypes="ccccc" />
    <path
       style="opacity:1;fill:#7c2f0a;fill-opacity:1;stroke-width:0.1;paint-order:markers stroke fill"
       d="m 82.061768,132.90311 c 5.705602,-0.53464 11.350643,-0.57908 16.931521,0.0702 l -0.257246,1.0056 C 93.136323,132.99834 87.292,133.35732 81.757748,133.86194 Z"
       id="path103845"
       sodipodi:nodetypes="ccccc" />
    <path
       style="opacity:1;fill:#7c2f0a;fill-opacity:1;stroke-width:0.1;paint-order:markers stroke fill"
       d="m 83.956039,139.05365 c 3.874381,-0.22465 8.817799,-0.90502 11.903516,0.0234 l -0.865284,1.33301 c 0.46227,-1.86043 -10.470323,-1.16705 -10.079402,-0.2105 z"
       id="path103847"
       sodipodi:nodetypes="ccccc" />
    <path
       style="opacity:1;fill:#7c2f0a;fill-opacity:1;stroke-width:0.1;paint-order:markers stroke fill"
       d="m 87.437695,153.14283 c 2.919374,-0.67788 4.785159,-1.20913 8.72533,-0.23833 l 0.962247,1.72373 c -2.635023,-1.92566 -6.715503,-2.19293 -10.378127,-0.0757 z"
       id="path104575"
       sodipodi:nodetypes="ccccc" />
    <path
       style="opacity:1;fill:#7c2f0a;fill-opacity:1;stroke-width:0.1;paint-order:markers stroke fill"
       d="m 85.161084,159.90191 c 4.895304,-0.45504 9.790608,-0.67882 14.685912,-0.34733 l 0.156084,1.52114 c -0.795398,-2.00667 -16.882535,-0.59065 -14.70852,0.24494 z"
       id="path104577"
       sodipodi:nodetypes="ccccc" />
    <path
       style="opacity:1;fill:#7c2f0a;fill-opacity:1;stroke-width:0.1;paint-order:markers stroke fill"
       d="m 85.270126,165.74396 c 5.165678,-0.41988 10.405684,-0.46813 15.683904,-0.32531 l 0.11379,1.58369 c -5.300061,-1.00902 -10.600117,-0.6293 -15.900173,0.15372 z"
       id="path104579"
       sodipodi:nodetypes="ccccc" />
    <path
       style="opacity:1;fill:#7c2f0a;fill-opacity:1;stroke-width:0.1;paint-order:markers stroke fill"
       d="m 85.125342,172.02931 c 5.307445,-0.53571 10.634744,-0.91257 16.053888,-0.55471 l -0.19365,1.44784 c -5.199161,-0.99284 -10.398317,-0.60967 -15.597474,0.53683 z"
       id="path104581"
       sodipodi:nodetypes="ccccc" />
    <path
       style="opacity:1;fill:#7c2f0a;fill-opacity:1;stroke-width:0.1;paint-order:markers stroke fill"
       d="m 88.357089,178.5827 7.993574,-0.28724 -1.028989,1.49671 -5.986835,-0.0936 z"
       id="path104583"
       sodipodi:nodetypes="ccccc" />
    <path
       style="opacity:1;fill:#43c210;fill-opacity:1;stroke-width:0.1;paint-order:markers stroke fill"
       d="m 83.878475,173.62007 c -2.761455,3.56693 -6.268292,3.1088 -9.811748,2.45293 -4.456802,-2.08902 -4.829665,-4.39233 -7.96061,-7.30437 3.049245,-0.27937 3.290488,-1.9587 10.473377,-1.60996 3.038601,0.19163 6.194727,0.002 7.298981,6.4614 z"
       id="path108945"
       sodipodi:nodetypes="ccccc" />
    <path
       style="opacity:1;fill:#b2f50c;fill-opacity:1;stroke-width:0.1;paint-order:markers stroke fill"
       d="m 83.399854,174.93628 c -1.40514,-0.1243 -2.282235,-0.18747 -3.792683,0.65748 -1.170308,1.15575 -1.007412,2.38166 -1.17302,3.59029 1.010244,-0.15873 1.99388,-0.19773 3.111042,-0.83759 1.138129,-0.61682 1.673949,-1.83594 1.854661,-3.41018 z"
       id="path110399"
       sodipodi:nodetypes="ccccc" />
    <path
       style="opacity:1;fill:#43c210;fill-opacity:1;stroke-width:0.1;paint-order:markers stroke fill"
       d="m 82.836622,139.43002 c -0.594629,-0.77785 -4.48513,-1.39784 -6.612467,-0.32993 -3.437718,2.34716 -4.251983,3.61856 -6.474041,8.17514 3.630254,-0.68064 7.126626,0.91959 11.451253,-0.94273 -0.712299,0.60639 3.841458,-2.6893 1.635255,-6.90248 z"
       id="path111127"
       sodipodi:nodetypes="ccccc" />
    <path
       style="opacity:1;fill:#b2f50c;fill-opacity:1;stroke-width:0.1;paint-order:markers stroke fill"
       d="m 86.978243,119.7643 c -1.239051,-0.0143 -1.959136,0.31654 -2.83078,-0.65561 -0.05859,-0.19019 -0.508077,0.1805 -1.325646,-3.76521 0.646997,0.43377 3.323795,0.17118 4.082391,1.32201 0.428451,1.16506 0.682847,1.72543 0.07404,3.09881 z"
       id="path111855"
       sodipodi:nodetypes="ccccc" />
    <path
       style="opacity:1;fill:#43c210;fill-opacity:1;stroke-width:0.1;paint-order:markers stroke fill"
       d="m 98.019742,124.96777 c -1.070715,-3.79011 -0.08602,-4.86177 1.288785,-5.41748 3.015863,-1.49422 4.703013,-1.71004 7.796803,-2.03538 -1.57832,2.21218 -2.16626,4.17349 -4.01645,6.60677 -1.15678,0.76166 -2.35154,1.48915 -5.069138,0.84609 z"
       id="path112583"
       sodipodi:nodetypes="ccccc" />
    <path
       style="opacity:1;fill:#b2f50c;fill-opacity:1;stroke-width:0.1;paint-order:markers stroke fill"
       d="m 99.585011,127.25222 c -0.01366,-1.3435 0.536459,-2.08784 0.952029,-2.40851 0.8117,-0.44952 1.53328,-0.83304 3.75184,-0.73831 -0.3522,1.20999 -1.69773,3.26826 -2.39193,3.24081 -0.98752,0.22635 -1.32442,0.39566 -2.311939,-0.094 z"
       id="path113311"
       sodipodi:nodetypes="cccccc" />
    <path
       style="opacity:1;fill:#43c210;fill-opacity:1;stroke-width:0.1;paint-order:markers stroke fill"
       d="m 93.873891,148.08723 c 0.452519,-4.24292 3.165926,-5.45926 6.049557,-5.85919 4.236622,0.009 5.613152,1.33211 9.624292,3.08823 -4.56646,4.11677 -4.80716,3.97768 -8.54552,4.69582 -3.423423,-0.0277 -5.383929,-0.42172 -7.128329,-1.92486 z"
       id="path114039"
       sodipodi:nodetypes="ccccc" />
    <path
       style="opacity:1;fill:#43c210;fill-opacity:1;stroke-width:0.1;paint-order:markers stroke fill"
       d="m 100.09266,190.37067 c -1.889781,-3.46128 -0.621853,-6.1107 -0.444195,-6.21878 0.821605,-1.1563 4.810345,-2.46097 9.226835,-2.25109 -1.82331,4.09575 -0.67383,5.1592 -2.58696,7.6836 -2.43793,1.55183 -4.26501,1.93982 -6.19568,0.78627 z"
       id="path114767"
       sodipodi:nodetypes="ccccc" />
  </g>
</svg>
